<svg xmlns="http://www.w3.org/2000/svg" xmlns:xlink="http://www.w3.org/1999/xlink" width="379.145" height="520.09" viewBox="0 0 379.145 520.09" preserveAspectRatio="none">
  <defs>
    <linearGradient id="linear-gradient" x1="0.882" y1="1" x2="0.333" y2="0.278" gradientUnits="objectBoundingBox">
      <stop offset="0" stop-color="#8dedf4"/>
      <stop offset="1" stop-color="#38c4ce"/>
    </linearGradient>
  </defs>
  <path id="Last_top_left_circle_cut" d="M5874-4030.909h0v-20.953a392.843,392.843,0,0,0,59.294-10.8,391.316,391.316,0,0,0,92.886-37.692,387.642,387.642,0,0,0,81.171-61.125,390.584,390.584,0,0,0,64.285-83.179,396.381,396.381,0,0,0,18.176-35.5,390.41,390.41,0,0,0,14.229-36.452,387.784,387.784,0,0,0,16.907-74.688,389.708,389.708,0,0,0,1.98-75.275,392.284,392.284,0,0,0-12.371-73.723c-.957-3.573-1.977-7.172-3.031-10.7H6236.8c.835,2.863,1.646,5.761,2.41,8.614a409.752,409.752,0,0,1,12.924,77.022,407.058,407.058,0,0,1-2.07,78.645c-1.63,13.136-3.933,26.335-6.845,39.231-2.946,13.046-6.585,26.1-10.818,38.8a408.284,408.284,0,0,1-14.865,38.086,414.029,414.029,0,0,1-18.99,37.092,407.953,407.953,0,0,1-67.164,86.9,404.932,404.932,0,0,1-84.8,63.861,409,409,0,0,1-97.044,39.381A410.308,410.308,0,0,1,5874-4030.91h0Z" transform="translate(-5874 4551)" fill="url(#linear-gradient)"/>
</svg>
