<svg width="236" height="311" viewBox="0 0 236 311" fill="none" xmlns="http://www.w3.org/2000/svg" preserveAspectRatio="none">
<path d="M32.9133 310.531H16.4704C15.9704 309.282 15.4754 308.031 15.0114 306.818C9.83773 293.298 5.96587 279.315 3.44846 265.059C0.938034 250.803 -0.206454 236.339 0.0304904 221.865C0.277006 207.285 1.93431 192.763 4.97873 178.502C8.08419 163.999 12.6176 149.84 18.5134 136.231C24.6031 122.21 32.0894 108.838 40.8586 96.3169C51.5852 80.9859 64.1674 67.0408 78.3186 54.7998C92.0189 42.971 107.099 32.8419 123.231 24.6328C139.123 16.5508 155.915 10.3729 173.256 6.22705C190.547 2.09367 208.265 0.0036569 226.044 0C229.157 0 232.308 0.0648477 235.411 0.193848V11.9609C234.555 11.9519 233.759 11.9473 232.975 11.9473H232.959C215.942 11.9526 198.984 13.9539 182.433 17.9102C165.835 21.879 149.763 27.7919 134.55 35.5269C119.109 43.3856 104.674 53.0808 91.5593 64.4019C78.0149 76.1183 65.9732 89.4664 55.7077 104.141C47.3124 116.123 40.1464 128.921 34.3186 142.341C28.675 155.366 24.3351 168.918 21.3625 182.799C18.4499 196.449 16.8646 210.35 16.6286 224.306C16.4017 238.16 17.4973 252.004 19.9006 265.65C22.3088 279.295 26.0139 292.679 30.9655 305.62C31.5875 307.243 32.2428 308.894 32.9148 310.526L32.9133 310.531Z" fill="url(#paint0_linear)"/>
<defs>
<linearGradient id="paint0_linear" x1="93.5005" y1="83.2224" x2="231.742" y2="342.035" gradientUnits="userSpaceOnUse">
<stop stop-color="#8DEDF4"/>
<stop offset="1" stop-color="#38C4CE"/>
</linearGradient>
</defs>
</svg>
