<svg xmlns="http://www.w3.org/2000/svg" xmlns:xlink="http://www.w3.org/1999/xlink" width="714.149" height="792.5" viewBox="0 0 714.149 792.5">
  <defs>
    <linearGradient id="linear-gradient" x1="0.207" y1="0.268" x2="0.726" y2="0.936" gradientUnits="objectBoundingBox">
      <stop offset="0" stop-color="#8dedf4"/>
      <stop offset="1" stop-color="#38c4ce"/>
    </linearGradient>
  </defs>
  <path id="Home_circle_cut" d="M7397.425-3896.5a486,486,0,0,1-48.933-2.471,479.827,479.827,0,0,1-47.517-7.25c-15.405-3.153-30.836-7.121-45.864-11.793-14.866-4.626-29.659-10.041-43.969-16.1-14.2-6-28.271-12.784-41.833-20.152-13.473-7.318-26.749-15.382-39.458-23.97a482.032,482.032,0,0,1-70.829-58.44,482.022,482.022,0,0,1-58.438-70.825c-8.6-12.727-16.661-26-23.97-39.46-7.373-13.57-14.153-27.646-20.152-41.835-6.061-14.33-11.476-29.123-16.093-43.968-4.671-15.021-8.639-30.451-11.793-45.862a479.827,479.827,0,0,1-7.252-47.521,486.272,486.272,0,0,1-2.471-48.931,486.275,486.275,0,0,1,2.471-48.931,480,480,0,0,1,7.252-47.519c3.152-15.408,7.12-30.839,11.793-45.864,4.623-14.86,10.037-29.653,16.093-43.969,5.994-14.177,12.774-28.252,20.152-41.833,7.3-13.448,15.368-26.724,23.97-39.458A482.817,482.817,0,0,1,7036.2-4689h29.137a462.062,462.062,0,0,0-40.25,51.313c-8.232,12.185-15.952,24.892-22.945,37.769-7.047,12.97-13.537,26.442-19.289,40.041-5.8,13.71-10.981,27.87-15.406,42.086-4.475,14.4-8.272,29.168-11.287,43.9a459.937,459.937,0,0,0-6.942,45.483,466.017,466.017,0,0,0-2.364,46.835,466.027,466.027,0,0,0,2.364,46.835c1.551,15.241,3.886,30.544,6.942,45.483,3.013,14.728,6.81,29.5,11.287,43.9,4.429,14.23,9.612,28.39,15.406,42.084,5.737,13.566,12.227,27.039,19.289,40.042,7,12.881,14.718,25.589,22.945,37.769a461.372,461.372,0,0,0,55.935,67.792,461.444,461.444,0,0,0,67.794,55.937c12.167,8.221,24.875,15.941,37.769,22.945,12.981,7.05,26.454,13.54,40.042,19.289,13.7,5.8,27.865,10.979,42.086,15.4,14.371,4.469,29.14,8.268,43.9,11.289a459.5,459.5,0,0,0,45.483,6.94,464.719,464.719,0,0,0,46.837,2.366,464.712,464.712,0,0,0,46.833-2.366,459.331,459.331,0,0,0,45.483-6.94c14.746-3.018,29.516-6.816,43.9-11.289,14.185-4.411,28.344-9.593,42.084-15.4,13.583-5.745,27.056-12.235,40.042-19.289,3.246-1.764,6.519-3.6,9.729-5.442v25.829c-2.5,1.415-5.006,2.807-7.458,4.138-13.559,7.367-27.633,14.147-41.833,20.152-14.322,6.058-29.115,11.473-43.969,16.1-15.048,4.677-30.479,8.645-45.864,11.793a479.554,479.554,0,0,1-47.519,7.25A485.968,485.968,0,0,1,7397.425-3896.5Z" transform="translate(-6918.851 4689.001)" fill="url(#linear-gradient)"/>
</svg>
